<svg xml:space="preserve" style="enable-background:new 0 0 251.953 240.843;" viewBox="0 0 251.953 240.843" height="240.843px" width="251.953px" y="0px" x="0px" xmlns:xlink="http://www.w3.org/1999/xlink" xmlns="http://www.w3.org/2000/svg" id="Layer_1" version="1.1">
<g id="Layer_3">
	<path d="M101.128,164.8c0,30.945,11.095,56.031,24.786,56.031c13.691,0,32.044-25.086,32.044-56.031
		c0-30.946-18.354-56.031-32.044-56.031C112.224,108.769,101.128,133.854,101.128,164.8z" style="fill:#B01B1F;"></path>
	<path d="M125.133,162.71c-3.779,30.72-19.57,54.105-35.27,52.228c-15.699-1.875-33.687-29.295-29.906-60.015
		c3.781-30.721,27.895-53.11,43.594-51.233C119.252,105.565,128.915,131.99,125.133,162.71z" style="fill:#B01B1F;"></path>
	<path d="M71.918,184.729c0,0,6.745,24.146,20.782,28.367c14.037,4.221,14.927-6.521,14.927-6.521
		c0.516,10.127,33.307,24.461,36.43-18.857C144.057,187.718,101.572,192.466,71.918,184.729z" style="fill:#D31A1F;"></path>
	<path d="M97.203,188.574c0,0,10.425,3.148,10.425,18.002c0,0-1.285-15.305,6.984-17.416L97.203,188.574z" style="fill:#B01B1F;"></path>
	<path d="M130.51,188.742c0,0,13.752-2.082,11.434,11.564c-2.317,13.65,10.638-11.363,6.615-14.277
		C144.538,183.117,130.51,188.742,130.51,188.742z" style="fill:#B01B1F;"></path>
	<path d="M42.854,168.712c0,0,7.446,9.738,22.678,15.519c24.305,9.224,97,9.572,104.969-22.478
		c0,0-7.321-15.209-18.506-22.873C140.812,131.216,19.656,114.334,42.854,168.712z" style="fill:#B01B1F;"></path>
	<path d="M71.327,108.678c0,0-62.093,58.675-3.354,72.908c47.664,11.545,117.947-2.045,99.621-35.321
		C149.268,112.989,131.893,67.63,71.327,108.678z" style="fill:#D31A1F;"></path>
	<path d="M82.833,116.227c0,0-38.945,50.942-0.762,64.718
		c30.984,11.176,76.082,0.451,63.613-29.467C133.217,121.557,121.129,80.917,82.833,116.227z" style="opacity:0.23;fill:#F5686C;enable-background:new    ;"></path>
	<path d="M52.006,157.311c0,0,24.965,10.412,32.74,6.782c7.776-3.629,7.657-25.331,7.657-25.331
		s23.689,11.299-0.387,32.106C81.818,179.682,37.522,159.949,52.006,157.311" style="fill:#B01B1F;"></path>
	<path d="M115.057,137.143c0,0-4.676,29.709,3.628,29.463c17.974-0.524,42.629-12.084,42.629-12.084
		s16.543,16.865-45.771,21.916c0,0-12.447-6.563-6.846-38.03L115.057,137.143z" style="fill:#B01B1F;"></path>
	<path d="M167.915,146.882c-5.037,11.48-23.334,18.978-45.205,21.728c-11.662,0.916-12.008-6.933-11.89-9.062
		l2.887-32.08l-18.094-1.321l-3.09,34.317c0,0-2.104,9.22-10.021,7.927c-5.434-0.738-10.749-1.767-15.811-3.111
		c-12.779-3.383-19.802-8.78-22.979-15.146c-9.945,0.779-2.84,25.736,24.261,31.451c39.094,8.236,91.732,2.599,101.138-18.229
		C173.609,158.367,172.188,142.141,167.915,146.882z" style="fill:#E6DFD0;"></path>
	<path d="M167.915,146.882c-5.037,11.48-23.334,18.978-45.205,21.728
		c-11.662,0.916-12.008-6.933-11.891-9.062l2.888-32.08l-4.405-0.321c-1.064,1.804-1.838,3.899-2.258,6.326
		c0,0-13.203,45.789,16.603,38.358c29.806-7.428,44.617-17.533,41.662-10.457c-0.843,2.015,1.196,2.338,4.254,1.414
		C173.506,157.251,172.038,142.307,167.915,146.882z" style="fill:#FAF3E2;"></path>
	<path d="M168.566,156.445c-9.401,20.824-62.042,26.467-101.137,18.227
		c-15.978-3.364-24.998-13.422-27.679-21.27c-2.13,7.111,6.783,23.664,28.223,28.184c39.094,8.236,91.732,2.599,101.138-18.229
		c2.896-3.211,3.339-11.075,2.142-15.01C171.01,151.5,170.161,154.68,168.566,156.445z" style="fill:#CFC8BB;"></path>
	<path d="M70.219,194.902c0,0-3.786-9.619,4.063-8.43C74.282,186.473,57.657,176.068,70.219,194.902z" style="fill:#B01B1F;"></path>
	<path d="M76.582,211.789c0,0-13.158-6.631-1.861-10.106c11.296-3.476,42.717-2.66,32.366,12.862L76.582,211.789z"></path>
	<path d="M82.202,200.802c-0.57,0-1.133,0.011-1.691,0.027c-2.213,0.291-4.201,0.693-5.79,1.183
		c-11.296,3.478,1.861,10.106,1.861,10.106l15.232,1.377c6.131-1.154,10.284-3.373,10.284-5.926
		C102.099,203.832,93.19,200.802,82.202,200.802z" style="fill:#3F3F3F;"></path>
	<path d="M107.477,217.292c0,7.476-8.488,7.437-18.958,7.437c-10.47,0-18.958,0.039-18.958-7.437
		c0-7.477,8.488-13.539,18.958-13.539C98.989,203.753,107.477,209.816,107.477,217.292z"></path>
	<path d="M98.896,209.417c0.784,3.99,2.161,9.789-11.994,9.789c-7.544,0-14.052-0.678-14.836-4.67
		c-0.786-3.994,4.584-8.379,11.994-9.793C91.469,203.332,98.111,205.421,98.896,209.417z" style="fill:#3F3F3F;"></path>
	<path d="M85.346,209.628c0.418,1.648-1.205,3.468-3.624,4.064
		c-2.42,0.594-4.722-0.258-5.14-1.904c-0.418-1.649,1.205-3.469,3.624-4.065C82.626,207.126,84.927,207.982,85.346,209.628z" style="opacity:0.33;fill:#8C8C8C;enable-background:new    ;"></path>
	<path d="M114.645,211.55c0,0-13.158-6.631-1.861-10.106c11.296-3.476,42.719-2.657,32.364,12.863L114.645,211.55z"></path>
	<path d="M120.265,200.566c-0.57,0-1.133,0.012-1.691,0.025c-2.213,0.291-4.201,0.695-5.79,1.184
		c-11.297,3.477,1.861,10.105,1.861,10.105l15.232,1.377c6.131-1.152,10.283-3.373,10.283-5.924
		C140.161,203.596,131.252,200.566,120.265,200.566z" style="fill:#3F3F3F;"></path>
	<path d="M145.542,217.055c0,7.479-8.49,7.438-18.959,7.438c-10.47,0-18.958,0.041-18.958-7.438c0-7.478,8.488-13.537,18.958-13.537
		C137.051,203.518,145.542,209.578,145.542,217.055z"></path>
	<path d="M136.959,209.18c0.783,3.991,2.162,9.791-11.994,9.791c-7.544,0-14.053-0.679-14.836-4.671
		c-0.786-3.995,4.584-8.379,11.993-9.793S136.172,205.184,136.959,209.18z" style="fill:#3F3F3F;"></path>
	<path d="M125.147,209.393c0.418,1.646-1.205,3.467-3.625,4.063
		c-2.42,0.596-4.722-0.258-5.139-1.906c-0.42-1.647,1.204-3.467,3.624-4.063C122.427,206.891,124.727,207.744,125.147,209.393z" style="opacity:0.33;fill:#8C8C8C;enable-background:new    ;"></path>
	<g>
		<path d="M78.488,118.742c0,0-34.569,7.321-19.624,47.075c1.407,3.742-7.313,6.476-11.038,4.92
			c-9.919-4.135-12.084-1.135-11.676-12.627c0.624-17.618,23.799-45.994,30.096-54.707C76.644,89.006,90.533,90.822,78.488,118.742" style="fill:#B01B1F;"></path>
		<path d="M76.001,113.801c0,0-37.909,10.986-19.829,45.937c1.931,3.73-5.659,10.676-9.2,8.861
			c-9.43-4.838-8.852-1.928-11.384-14.076c-6.892-33.057,21.566-49.168,27.136-58.336C71.927,81.04,78.67,96.912,76.001,113.801" style="fill:#D31A1F;"></path>
		<path d="M35.659,154.509c-16.261-37.115,26.005-51.942,32.04-61.225c5.833-8.972,11.687-5.408,17.689,0.417
			c-4.363-0.518-8.874,1.304-12.258,6.511c-6.034,9.283-47.487,21.577-28.715,58.725c2.108,4.174,0.208,7.109,1.069,8.621
			C37.31,164.137,40.327,165.162,35.659,154.509z" style="fill:#E63A3F;"></path>
		<g>
			<path d="M67.26,161.266c0,0,5.076,6.885-0.574,10.489c-5.653,3.605-6.821-1.559-7.065,2.89
				c-0.243,4.444-10.4,10.627-17.57,4.207C37.595,174.859,61.999,157.587,67.26,161.266z" style="fill:#B01B1F;"></path>
			<path d="M42.378,179.18c3.11,3.021,10.894,1.364,12.848-0.609c3.869-3.903,0.257-11.639,6.001-8.598
				c6.692,3.543,8.416-6.396,5.139-9.574c-6.99-6.776-10.193-7.942-23.402-1.418C35.488,162.671,35.39,172.408,42.378,179.18z" style="fill:#D31A1F;"></path>
			<path d="M41.034,174.416c2.49,2.41,8.717,1.088,10.281-0.49c3.093-3.125,0.205-9.312,4.799-6.879
				c5.352,2.836,4.913-4.037,4.108-7.659c-1.356-6.107-8.15-6.354-18.719-1.132C35.529,161.21,35.447,168.994,41.034,174.416z" style="fill:#E63A3F;"></path>
			<g>
				<path d="M56.877,155.811l0.033,0.021c-0.979-0.496-9.785-4.494-17.813,7.229l0,0
					c-1.339,1.955-3.952,2.584-5.837,1.408c-1.887-1.178-2.33-3.715-0.991-5.67l0,0c10.229-14.932,23.443-13.285,29.002-10.324l0,0
					c1.97,1.047,2.581,3.539,1.367,5.564C61.425,156.066,58.844,156.859,56.877,155.811L56.877,155.811z" style="fill:#E6DFD0;"></path>
			</g>
			<path d="M37.948,155.283c6.354-2.479,6.676-4.51,9.604-5.49c12.518-1.266,14.732-0.184,15.078-0.059
				c-0.332-0.51-0.779-0.955-1.358-1.262c-5.559-2.961-18.773-4.607-29.002,10.324c-1.339,1.955-0.896,4.492,0.991,5.67
				C33.26,164.466,28.041,161.648,37.948,155.283z" style="fill:#FAF3E2;"></path>
			<path d="M31.506,161.27c0.165,0.147,0.333,0.293,0.529,0.416c1.886,1.176,4.5,0.545,5.839-1.408
				c8.026-11.726,16.834-7.728,17.812-7.229l-0.033-0.019c1.967,1.048,4.546,0.255,5.76-1.771c0.43-0.719,0.62-1.494,0.613-2.244
				c1.343,1.221,1.65,3.289,0.611,5.023c-1.213,2.028-3.794,2.821-5.761,1.772l0.033,0.021c-0.979-0.496-9.785-4.494-17.813,7.229
				c-1.339,1.955-3.952,2.584-5.837,1.408C32.119,163.753,31.518,162.544,31.506,161.27z" style="fill:#CFC8BB;"></path>
			<path d="M62.104,157.234c0,0-14.542-5.035-24.855,10.867c0,0-3.178-6.801,9.004-12.252
				C58.437,150.396,62.104,157.234,62.104,157.234z" style="fill:#D31A1F;"></path>
			<path d="M36.88,165.818c0.026-1.707,1.371-1.354,4.28-2.629c0,0-4.914,6.156-0.127,11.227
				C44.607,178.197,36.718,176.496,36.88,165.818z" style="fill:#D31A1F;"></path>
			<path d="M53.424,156.727c0,0,6.55-0.631,7.215,5.33C61.19,167.005,65.443,151.273,53.424,156.727z" style="fill:#D31A1F;"></path>
		</g>
	</g>
	<g>
		<path d="M138.139,118.6c0,0,32.465,12.708,9.883,46.483c-2.125,3.181,5.888,7.197,9.853,6.422
			c10.558-2.061,12.084,1.063,13.972-9.522c2.897-16.229-14.195-46.22-18.64-55.289C145.87,91.713,131.879,90.959,138.139,118.6" style="fill:#B01B1F;"></path>
		<path d="M141.562,114.512c0,0,35.013,16.644,10.312,45.478c-2.638,3.078,3.428,10.75,7.265,9.707
			c10.217-2.785,9.069-0.225,13.973-10.896c13.346-29.049-6.312-47.875-15.012-52.881
			C134.238,92.188,142.307,98.593,141.562,114.512" style="fill:#D31A1F;"></path>
		<path d="M173.045,158.773c25.83-29.771-12.861-50.177-19.168-57.488
			c-6.549-7.594-10.475-11.084-17.523-6.798c4.385,0.285,8.449,2.735,10.732,8.087c4.072,9.543,42.301,28,16.486,58.726
			c-2.9,3.453-1.621,6.469-2.766,7.701C169.508,167.292,165.686,167.253,173.045,158.773z" style="fill:#E63A3F;"></path>
		<g>
			<path d="M140.689,159.46c0,0-6.352,5.416-1.524,9.699c4.828,4.281,7.004-0.24,6.356,3.869
				c-0.646,4.109,8.09,11.531,16.404,6.906C167.092,177.059,146.584,157.009,140.689,159.46z" style="fill:#B01B1F;"></path>
			<path d="M161.54,180.177c-3.654,2.222-10.963-0.645-12.485-2.793c-3.021-4.243,2.065-10.692-4.179-8.911
				c-7.271,2.082-6.981-7.312-3.138-9.649c8.212-4.984,11.585-5.496,23.248,2.772C171.586,166.273,169.745,175.195,161.54,180.177z" style="fill:#D31A1F;"></path>
			<path d="M163.809,176.05c-2.924,1.771-8.771-0.518-9.992-2.233c-2.412-3.396,1.652-8.555-3.34-7.127
				c-5.817,1.662-4.018-4.549-2.508-7.726c2.549-5.354,9.264-4.396,18.594,2.222C171.838,164.93,170.368,172.064,163.809,176.05z" style="fill:#E63A3F;"></path>
			<g>
				<path d="M151.963,156.273l-0.035,0.014c1.059-0.287,10.496-2.412,16.041,9.713l0,0
					c0.924,2.021,3.363,3.051,5.447,2.303c2.086-0.75,3.025-2.993,2.1-5.018l0,0c-7.063-15.441-20.356-16.229-26.401-14.49l0,0
					c-2.142,0.615-3.238,2.791-2.449,4.855C147.452,155.718,149.825,156.891,151.963,156.273L151.963,156.273z" style="fill:#E6DFD0;"></path>
			</g>
			<path d="M170.645,159.083c-5.742-3.375-5.653-5.287-8.332-6.694c-12.03-3.334-14.42-2.729-14.783-2.675
				c0.429-0.409,0.953-0.737,1.584-0.92c6.046-1.739,19.339-0.951,26.402,14.49c0.926,2.023-0.014,4.269-2.1,5.019
				C173.417,168.302,179.1,166.628,170.645,159.083z" style="fill:#FAF3E2;"></path>
			<path d="M175.773,165.68c-0.19,0.108-0.387,0.211-0.604,0.288c-2.084,0.748-4.521-0.28-5.449-2.303
				c-5.541-12.123-14.979-9.996-16.039-9.713l0.037-0.01c-2.139,0.615-4.512-0.559-5.301-2.625c-0.279-0.73-0.309-1.473-0.154-2.158
				c-1.561,0.883-2.275,2.723-1.6,4.49c0.787,2.068,3.16,3.24,5.299,2.623l-0.035,0.014c1.059-0.287,10.496-2.412,16.041,9.713
				c0.924,2.021,3.363,3.051,5.447,2.304C174.678,167.85,175.508,166.846,175.773,165.68z" style="fill:#CFC8BB;"></path>
			<path d="M146.551,156.669c0,0,15.273-2.078,22.227,14.265c0,0,4.474-5.668-6.395-12.776
				C151.512,151.05,146.551,156.669,146.551,156.669z" style="fill:#D31A1F;"></path>
			<path d="M169.594,168.91c0.316-1.566-1.074-1.477-3.676-3.15c0,0,3.596,6.486-2.109,10.291
				C159.549,178.893,167.629,178.707,169.594,168.91z" style="fill:#D31A1F;"></path>
			<path d="M155.17,157.712c0,0-6.303-1.715-8.143,3.623C145.504,165.768,144.461,150.634,155.17,157.712z" style="fill:#D31A1F;"></path>
		</g>
	</g>
	<path d="M73.445,34.592c0,0-2.063,3.348-1.376,6.725c1.228,6.038,11.286,1.135,9.397-3.12
		C79.576,33.942,73.445,34.592,73.445,34.592z" style="fill:#D6D6D6;"></path>
	<path d="M147.01,42.348c0,0,1.492,5.126-3.039,8.504l-2.66-3.547L147.01,42.348z" style="fill:#F5F5F5;"></path>
	<path d="M59.557,102.087c0,0,11.269,38.944,41.586,37.522c42.904-2.012,49.068-31.059,49.068-31.059
		L59.557,102.087z" style="fill:#B01B1F;"></path>
	<path d="M157.004,20.231c-0.369,2.416-22.752-7.344-18.578-4.094c6.516,5.071,3.285,11.526,1.891,17.333
		c-3.58,14.922-18.614,24.39-33.579,21.145c-14.965-3.246-24.194-17.976-20.613-32.9c3.58-14.922,33.931-27.138,46.823-19.231
		C146.129,10.568,157.273,18.456,157.004,20.231z" style="fill:#D31A1F;"></path>
	<path d="M127.555,8.238c0,0-12.979-2.997-2.72,3.991s-12.284,0.136-23.452,1.072
		C101.384,13.301,113.453,4.564,127.555,8.238z" style="fill:#E31C21;"></path>
	<path d="M106.547,13.304c-8.872,0.823-5.59-4.199,0.705-8.506c4.399-3.008,10.744-4.477,10.752-4.481
		c-13.611,1.76-29.363,10.905-31.879,21.397c-2.257,9.405,0.577,18.729,6.724,25.154c17.206-0.787,37.945-5.796,46.456-10.11
		c0.396-1.064,0.742-2.159,1.012-3.288c0.273-1.135,0.615-2.295,0.939-3.465C133.756,15.375,119.889,12.065,106.547,13.304z" style="fill:#CC1F23;"></path>
	<path d="M160.206,86.99c-4.97,24.084-29.614,47.202-59.838,45.269C66.508,130.1,50.822,94.794,55.79,70.71
		c4.969-24.086,23.82-45.216,59.092-39.865C142.327,35.008,165.174,62.905,160.206,86.99z" style="fill:#E6DFD0;"></path>
	<g>
		<path d="M138.049,60.352c-1.584-15.17-16.459-26.207-33.217-24.652
			c-16.761,1.556-29.061,15.114-27.474,30.285c1.586,15.168,16.458,26.205,33.216,24.648
			C127.335,89.08,139.639,75.521,138.049,60.352z" style="fill:#FFBCAC;"></path>
	</g>
	<path d="M107.624,67.297c-1.723,14.883-8.641,13.613-17.249,12.706
		c-8.607-0.907-15.647-1.107-13.923-15.991c1.725-14.884,10.103-26.215,18.709-25.309C103.769,39.61,109.349,52.412,107.624,67.297z" style="opacity:0.36;fill:#EDA695;enable-background:new    ;"></path>
	<path d="M104.338,63.163c-1.259,10.868-6.756,13.8-13.042,13.137c-6.284-0.662-10.978-4.667-9.719-15.535
		c1.26-10.869,7.376-19.142,13.661-18.479C101.523,42.948,105.599,52.296,104.338,63.163z" style="fill:#EDA695;"></path>
	<g>
		<path d="M102.688,63.713c-1.053,9.08-5.352,9.003-10.603,8.449c-5.25-0.552-9.463-1.374-8.412-10.453
			c1.053-9.079,5.893-14.362,11.412-15.437C101.525,45.018,103.74,54.633,102.688,63.713z" style="fill:#FFFFFF;"></path>
		<path d="M95.154,72.868c-0.95,0-1.935-0.083-3.121-0.208c-3.12-0.328-5.837-0.767-7.481-2.819
			c-1.366-1.705-1.816-4.383-1.375-8.188c0.993-8.563,5.52-14.644,11.813-15.87c2.069-0.4,3.865,0.21,5.271,1.788
			c2.581,2.898,3.729,9.257,2.924,16.202C102.257,71.766,98.777,72.868,95.154,72.868z M96.19,46.661
			c-0.324,0-0.664,0.034-1.01,0.102c-5.851,1.14-10.07,6.889-11.011,15.004c-0.408,3.526-0.028,5.962,1.163,7.448
			c1.405,1.754,3.809,2.135,6.805,2.45c1.155,0.122,2.11,0.203,3.017,0.203c3.652,0,6.247-1.396,7.038-8.212
			c0.773-6.673-0.278-12.727-2.678-15.421C98.583,47.19,97.466,46.661,96.19,46.661z" style="fill:#C45A5E;"></path>
	</g>
	<path d="M99.769,60.527c-0.384,3.302-3.518,5.682-7.001,5.316c-3.485-0.369-5.998-3.343-5.616-6.646
		c0.383-3.303,3.517-5.682,7.001-5.315C97.636,54.249,100.15,57.224,99.769,60.527z" style="fill:#008C05;"></path>
	<path d="M97.109,59.012c-0.27,2.325-2.478,4.001-4.93,3.743c-2.453-0.258-4.222-2.354-3.953-4.678
		c0.269-2.327,2.477-4.003,4.929-3.744C95.607,54.591,97.377,56.686,97.109,59.012z" style="fill:#009C06;"></path>
	<path d="M94.545,64.829c-0.17,1.472-1.566,2.532-3.119,2.369c-1.552-0.164-2.673-1.49-2.503-2.961
		c0.171-1.473,1.569-2.532,3.12-2.37C93.596,62.032,94.715,63.357,94.545,64.829z" style="fill:#FFFFFF;"></path>
	<path d="M97.49,61.028c-0.073,0.622-0.662,1.07-1.318,1.001c-0.658-0.068-1.13-0.629-1.058-1.251
		c0.072-0.622,0.662-1.07,1.318-1.001C97.087,59.846,97.561,60.406,97.49,61.028z" style="fill:#FFFFFF;"></path>
	<path d="M137.174,69.638c-1.816,15.676-9.104,14.337-18.17,13.382
		c-9.063-0.956-16.482-1.167-14.664-16.844c1.816-15.678,10.64-27.611,19.707-26.657C133.111,40.477,138.991,53.96,137.174,69.638z" style="opacity:0.36;fill:#EDA695;enable-background:new    ;"></path>
	<path d="M133.713,65.285c-1.326,11.446-7.115,14.533-13.736,13.835c-6.619-0.698-11.564-4.916-10.236-16.363
		c1.326-11.446,7.77-20.16,14.389-19.462C130.75,43.993,135.04,53.837,133.713,65.285z" style="fill:#EDA695;"></path>
	<path d="M96.33,47.53c-4.222-0.851-7.195,1.655-9.23,5.889
		c1.511-1.517,3.605-2.461,5.931-2.477c4.649-0.031,8.451,3.668,8.491,8.262c0.042,4.593-3.693,8.343-8.344,8.375
		c-4.242,0.028-7.769-3.052-8.386-7.082c-0.052,0.23-0.101,0.459-0.148,0.693c-1.74,8.494,2.013,9.612,6.73,10.563
		c4.712,0.952,8.607,1.373,10.345-7.119C103.459,56.139,102.199,48.715,96.33,47.53z" style="opacity:0.34;fill:#C5EFFA;enable-background:new    ;"></path>
	<g>
		<path d="M131.973,65.864c-1.106,9.562-5.637,9.48-11.164,8.896c-5.533-0.582-9.971-1.446-8.861-11.008
			c1.107-9.563,4.493-17.053,12.021-16.26C130.85,48.219,133.083,56.3,131.973,65.864z" style="fill:#FFFFFF;"></path>
		<path d="M124.042,75.478c-1,0-2.037-0.087-3.285-0.22c-3.282-0.345-6.14-0.806-7.865-2.959
			c-1.433-1.79-1.904-4.604-1.439-8.603c1.269-10.964,5.227-16.76,11.446-16.76c0.364,0,0.739,0.02,1.124,0.061
			c2.32,0.245,4.23,1.286,5.679,3.095c2.595,3.242,3.578,8.864,2.77,15.831C131.497,74.32,127.845,75.478,124.042,75.478z
			 M122.897,47.936c-7.121,0-9.614,8.633-10.453,15.875c-0.432,3.72-0.031,6.292,1.227,7.862c1.486,1.856,4.025,2.258,7.189,2.591
			c1.217,0.128,2.224,0.214,3.18,0.214c3.86,0,6.602-1.474,7.434-8.671c0.778-6.7-0.13-12.06-2.557-15.091
			c-1.275-1.593-2.958-2.51-5.002-2.726C123.568,47.954,123.228,47.936,122.897,47.936z" style="fill:#C45A5E;"></path>
	</g>
	<path d="M129.797,61.824c-0.402,3.479-3.704,5.986-7.373,5.599c-3.67-0.386-6.318-3.521-5.914-6.999
		c0.402-3.479,3.704-5.986,7.373-5.599C127.555,55.21,130.202,58.345,129.797,61.824z" style="fill:#008C05;"></path>
	<path d="M126.441,60.567c-0.27,2.325-2.478,4.002-4.931,3.743c-2.451-0.258-4.222-2.354-3.952-4.679
		c0.269-2.326,2.475-4.002,4.929-3.744C124.939,56.146,126.708,58.242,126.441,60.567z" style="fill:#009C06;"></path>
	<path d="M123.974,47.949c-4.821-0.508-7.896,2.476-9.743,7.229
		c1.537-1.777,3.789-2.996,6.395-3.239c5.207-0.483,9.849,3.13,10.365,8.069c0.516,4.938-3.286,9.334-8.495,9.817
		c-4.754,0.442-9.021-2.533-10.128-6.808c-0.035,0.251-0.064,0.504-0.094,0.759c-1.078,9.308,3.24,10.149,8.627,10.715
		c5.38,0.568,9.789,0.647,10.867-8.661C132.846,56.523,130.674,48.656,123.974,47.949z" style="opacity:0.34;fill:#C5EFFA;enable-background:new    ;"></path>
	<path d="M124.298,66.355c-0.182,1.549-1.65,2.667-3.288,2.495c-1.633-0.173-2.813-1.57-2.635-3.12
		c0.181-1.55,1.652-2.667,3.287-2.494C123.297,63.408,124.477,64.806,124.298,66.355z" style="fill:#FFFFFF;"></path>
	<path d="M127.377,61.781c-0.084,0.711-0.758,1.22-1.506,1.141s-1.285-0.716-1.203-1.426
		c0.08-0.709,0.753-1.22,1.502-1.142C126.918,60.434,127.458,61.072,127.377,61.781z" style="fill:#FFFFFF;"></path>
	<path d="M114.416,31.06c19.688,5.876,34.938,26.339,31.249,44.217
		c-4.024,19.499-23.974,38.211-48.441,36.649c-27.415-1.748-40.114-30.33-36.091-49.829c0.883-4.277,2.307-8.438,4.292-12.285
		c-3.162,5.125-5.341,10.882-6.571,16.844c-4.487,21.747,9.676,53.623,40.25,55.574c27.288,1.746,49.539-19.128,54.026-40.874
		C157.48,60.26,138.195,35.927,114.416,31.06z" style="fill:#F5EFE4;"></path>
	<g>
		<path d="M143.575,84.054c-0.916,7.884-9.212,5.784-17.527,4.907c-8.318-0.876-13.504-0.197-12.592-8.082
			c0.912-7.886,8.397-13.566,16.715-12.689C138.486,69.066,144.486,76.168,143.575,84.054z" style="fill:#FFBCAC;"></path>
		<path d="M113.366,82.329c0,0,4.506-11.212,17.016-9.894
			c12.511,1.318,4.527-5.793-6.076-3.775C113.7,70.677,113.366,82.329,113.366,82.329z" style="opacity:0.24;fill:#FFFFFF;enable-background:new    ;"></path>
		<path d="M130.85,69.35c2.773,0.292,5.314,1.16,7.484,2.438c0.1,0.006,0.195,0.006,0.295,0.012
			c-2.277-1.944-5.184-3.266-8.459-3.611c-6.348-0.669-12.19,2.491-15.015,7.527C118.364,71.312,124.346,68.664,130.85,69.35z" style="fill:#FFE0D9;"></path>
	</g>
	<g>
		<path d="M116.621,91.923c0,0-1.722,13.647-17.546,11.396c-12.383-1.76-8.752-15.556-8.752-15.556
			L116.621,91.923z" style="fill:#B01B1F;"></path>
		
			<linearGradient gradientTransform="matrix(0.9952 -0.098 -0.098 -0.9952 -27.0561 97.5645)" y2="-32.4219" x2="123.6123" y1="-6.833" x1="130.5645" gradientUnits="userSpaceOnUse" id="SVGID_1_">
			<stop style="stop-color:#FF8C90" offset="0"></stop>
			<stop style="stop-color:#A31C20" offset="1"></stop>
		</linearGradient>
		<path d="M117.905,91.231c0,0-5.666,12.807-19.107,9.83c-10.065-2.23-8.785-14-8.785-14
			L117.905,91.231z" style="fill:url(#SVGID_1_);"></path>
		<path d="M92.048,87.365c0,0,0.466,6.685,9.16,8.223c8.696,1.538,14.021-4.755,14.021-4.755L92.048,87.365z" style="fill:#B01B1F;"></path>
		<path d="M102.348,99.23c-1.334,0-2.631-0.203-3.885-0.609
			c-0.263-0.085-0.407-0.367-0.322-0.629s0.368-0.406,0.629-0.322c3.362,1.088,7.081,0.584,11.052-1.496
			c0.246-0.129,0.546-0.033,0.675,0.211c0.128,0.245,0.034,0.547-0.211,0.675C107.527,98.506,104.87,99.23,102.348,99.23z" style="opacity:0.59;fill:#FFFFFF;enable-background:new    ;"></path>
		<path d="M95.052,92.838c0,0,2.209-6.257,8.08-1.585c0,0,7.392-2.175,6.626,3.377
			C109.758,94.63,101.612,98.059,95.052,92.838z" style="fill:#911619;"></path>
	</g>
	<path d="M97.104,94.391c0,0,2.462-0.226,3.575-1.86c0,0,2.412,2.369,6.056,2.872
		c3.645,0.502,3.023-0.772,3.023-0.772l-8.622-4.249l-5.08,3.499L97.104,94.391z" style="fill:#6B0000;"></path>
	<path d="M56.891,77.614c0,0,25.729,30.091,44.628,12.75c0,0,24.351,20.479,43.303-2.109L56.891,77.614z" style="fill:#C7C1B4;"></path>
	<path d="M117.329,31.283c21.805,6.508,38.694,29.172,34.608,48.975
		c-4.455,21.594-26.553,42.322-53.651,40.59C67.924,118.91,53.86,87.255,58.314,65.659c0.978-4.737,2.555-9.347,4.754-13.607
		c-3.502,5.677-5.917,12.053-7.279,18.658c-4.969,24.084,10.717,59.39,44.578,61.549c30.224,1.933,54.869-21.185,59.838-45.269
		C165.025,63.625,143.667,36.674,117.329,31.283z" style="fill:#D4CEBF;"></path>
	<g>
		<path d="M100.38,80.906c-1.45,5.284,3.426,12.149,15.626,15.171c12.201,3.023,29.248-2.056,32.572-12.508
			c1.662-5.227-15.123-3.607-27.323-6.63C109.055,73.916,101.83,75.62,100.38,80.906z" style="fill:#E6DFD0;"></path>
		<path d="M138.064,92.4c0,0-6.58,3.664-14.813-0.54
			c-8.233-4.202,15.362-1.675-4.236-4.897c-22.794-3.745,11.646-2.242-4.546-6.252c-6.966-1.726-17.125-5.588-0.862-5.117
			C144.219,76.48,160.896,79.71,138.064,92.4z" style="opacity:0.67;fill:#FFFFFF;enable-background:new    ;"></path>
	</g>
	<g>
		<path d="M71.06,76.411c-0.913,7.884,6.426,7.43,14.743,8.306c8.315,0.877,14.461,2.753,15.375-5.132
			c0.912-7.885-5.088-14.987-13.405-15.863C79.458,62.844,71.974,68.526,71.06,76.411z" style="fill:#FFBCAC;"></path>
		<path d="M100.935,81.019c0,0-1.829-11.88-14.339-13.198
			c-12.51-1.318-3.094-6.598,6.792-2.419C103.274,69.579,100.935,81.019,100.935,81.019z" style="opacity:0.24;fill:#FFFFFF;enable-background:new    ;"></path>
		<path d="M86.844,64.71c-2.773-0.291-5.452,0.026-7.865,0.822c-0.096-0.015-0.191-0.034-0.289-0.05
			c2.666-1.423,5.805-2.107,9.083-1.762c6.347,0.668,11.324,4.971,12.928,10.473C98.579,69.226,93.349,65.396,86.844,64.71z" style="fill:#FFE0D9;"></path>
	</g>
	<path d="M58.314,65.659c0.978-4.737,2.555-9.347,4.754-13.607c-2.487,4.03-4.414,8.417-5.816,12.984
		c-0.678,5.11-0.391,10.658,0.834,16.176C57.255,75.821,57.318,70.489,58.314,65.659z M151.586,66.264
		c-1.369-9.713-6.912-19.307-14.867-26.676c-5.861-3.956-12.449-6.885-19.391-8.306C134.079,36.283,147.917,50.817,151.586,66.264z
		 M159.825,71.378c0.625,4.127,0.59,8.277-0.244,12.319c-4.97,24.082-29.613,47.199-59.836,45.271
		c-24.815-1.584-39.855-20.97-44.172-40.695c3.292,20.805,18.923,44.023,45.12,45.693c30.224,1.932,54.545-22.893,59.514-46.977
		C161.26,81.87,161.061,76.578,159.825,71.378z" style="fill:#BDB8AA;"></path>
	<g>
		<path d="M104.55,82.063c-0.07,5.481-6.776,10.89-19.572,10.725c-12.796-0.163-28.85-12.012-28.78-17.493
			c0.071-5.48,16.24-2.517,29.034-2.354C98.028,73.105,104.621,76.582,104.55,82.063z" style="fill:#E6DFD0;"></path>
		<path d="M56.311,74.623c-0.268,1.736,4.452,3.86,7.918,7.194
			c0,0,5.602,7.042,14.846,5.058c9.245-1.983-14.565-5.509,5.529-3.666c23.367,2.145-10.77-5.119,6.21-4.9
			c7.307,0.093,18.336-1.074,2.288-4.732C80.772,70.765,57.251,68.532,56.311,74.623z" style="opacity:0.67;fill:#FFFFFF;enable-background:new    ;"></path>
	</g>
	<g>
		<path d="M114.893,79.249c-0.234,4.888-8.606,8.491-14.337,8.24c-5.729-0.251-10.186-4.419-9.953-9.308
			c0.232-4.888,5.064-8.647,10.794-8.396C107.126,70.037,115.125,74.359,114.893,79.249z" style="fill:#FFBCAC;"></path>
		<path d="M111.84,79.658c-6.499-0.285-15.166-3.745-14.986-7.535
			c0.031-0.645,0.224-1.258,0.536-1.837c-3.818,1.167-6.611,4.208-6.787,7.895c-0.233,4.888,4.223,9.056,9.953,9.308
			c5.606,0.247,13.886-3.197,14.303-7.932C113.891,79.661,112.882,79.704,111.84,79.658z" style="opacity:0.5;fill:#E09A89;enable-background:new    ;"></path>
		<path d="M103.579,83.041c-6.5-0.286-11.625-3.59-11.446-7.38c0.109-2.277,2.115-4.205,5.102-5.325
			c-3.738,1.201-6.458,4.209-6.631,7.845c-0.233,4.888,4.223,9.056,9.953,9.308c4.519,0.198,11.781-2.127,13.364-5.508
			C111.93,82.735,106.192,83.155,103.579,83.041z" style="fill:#E09A89;"></path>
		<path d="M106.493,74.028c-0.262,1.058-1.832,1.613-3.506,1.239c-1.677-0.375-2.821-1.536-2.561-2.595
			c0.263-1.06,1.832-1.613,3.507-1.239C105.608,71.807,106.754,72.969,106.493,74.028z" style="fill:#FFFFFF;"></path>
	</g>
	<path d="M74.197,39.576c0,0-2.836,1.053-2.128,1.742
		c3.221,3.129,14.499,2.33,24.377,0.857c21.389-3.189,41.15,13.091,49.648,5.228C146.094,47.402,130.825,26.013,74.197,39.576z" style="opacity:0.14;enable-background:new    ;"></path>
	<path d="M96.725,97.79c-0.082,0-0.165-0.02-0.241-0.062
		c-1.416-0.782-2.157-1.683-2.188-1.721c-0.174-0.214-0.141-0.528,0.072-0.702s0.528-0.144,0.703,0.07
		c0.006,0.008,0.661,0.795,1.896,1.478c0.242,0.133,0.33,0.438,0.196,0.679C97.072,97.697,96.901,97.79,96.725,97.79z" style="opacity:0.34;fill:#FFFFFF;enable-background:new    ;"></path>
	<path d="M146.959,43.019c-1.178,10.798-16.49-1.636-36.828-3.653c-20.338-2.017-38.002,7.146-36.825-3.652
		c1.176-10.798,18.618-17.917,38.955-15.901C132.598,21.831,148.135,32.219,146.959,43.019z" style="fill:#E8E8E8;"></path>
	<path d="M91.529,25.601c0,0,27.026-8.941,50.821,6.36c-5.942-6.097-17.021-10.851-30.088-12.148
		c-20.337-2.017-37.779,5.103-38.955,15.901c-1.176,10.798,16.487,1.635,36.825,3.652c1.069,0.106,2.121,0.247,3.161,0.405h-0.001
		C99.461,35.57,76.512,30.261,91.529,25.601z" style="fill:#DBDBDB;"></path>
	<path d="M98.042,35.513c0,0,31.087,1.916,38.474,7.666c7.387,5.749,0.938,3.638-8.14,1.087
		c-9.075-2.552-16.726-6.349-32.97-4.624L98.042,35.513z" style="fill:#DBDBDB;"></path>
	<path d="M112.261,19.813c-5.601-0.556-10.98-0.415-15.864,0.302c3.078-0.127,6.286-0.044,9.57,0.282
		c20.338,2.017,35.873,12.406,34.697,23.204c-0.172,1.589-0.66,2.664-1.416,3.354c4.465,0.989,7.236,0.412,7.711-3.937
		C148.135,32.219,132.598,21.831,112.261,19.813z" style="fill:#FFFFFF;"></path>
	<path d="M168.982,21.22c0.453,4.332-2.881,8.188-7.448,8.611c-4.568,0.424-8.64-2.744-9.093-7.076
		c-0.452-4.332,2.886-8.187,7.451-8.61C164.461,13.72,168.532,16.889,168.982,21.22z" style="fill:#E8E8E8;"></path>
	
		<ellipse ry="5.6" rx="5.309" cy="20.166" cx="160.444" style="fill:#FFFFFF;" transform="matrix(0.0122 -0.9999 0.9999 0.0122 138.3164 180.3514)"></ellipse>
	<path d="M114.104,119.296c0,0,8.615-2.594,14.433-8.518c4.988-5.08,6.626-13.355,6.518-4.367
		c-0.111,8.988,12-13.129,12-13.129s11.448,0.932-1.88,13.264C131.848,118.877,114.003,127.533,114.104,119.296z" style="fill:#D4CEBF;"></path>
	<path d="M69.95,101.777c0,0,3.473,12.116,11.135,14.743C88.748,119.146,67.165,122.044,69.95,101.777z" style="fill:#D4CEBF;"></path>
	<path d="M140.691,41.584c-0.375-7.522-7.346-20.933-43.163-21.625c0,0,29.843,1.981,28.249,19.213
		c0,0-2.545,5.501,13.471,7.783C139.249,46.955,140.877,45.25,140.691,41.584z" style="fill:#F5F5F5;"></path>
	<path d="M153.568,74.882c0,0,1.427,21.338-10.12,35.075c0,0,7.698-23.536,3.92-43.466
		C143.586,46.561,152.426,61.433,153.568,74.882z" style="fill:#F5EFE4;"></path>
	<polygon points="137.59,15.567 129.193,9.846 140.838,16.142" style="fill:#B01B1F;"></polygon>
	<path d="M152.025,16.305c0.271,1.42-21.725-13.583-39.311-6.302c-8.471,3.507-13.005,4.894-11.817,1.333
		c0.458-1.371,5.961-6.56,9.661-8.398C128.607-6.028,151.756,14.885,152.025,16.305z" style="fill:#E31C21;"></path>
	<path d="M129.193,9.846c0,0,5.093,5.647,7.908,9.675c2.195,3.139,1.98,6.805-1.049,3.027l5.203,7.457
		C141.256,30.005,149.26,18.997,129.193,9.846z" style="fill:#B01B1F;"></path>
</g>
<g id="Layer_2">
	<path d="M206.236,109.414c-0.963-0.604-2.228-1.111-3.832-1.461c-0.041-0.009-0.086-0.013-0.125-0.021
		c-5.12-1.394-12.478-1.68-23.102,0.345c-19.062,3.632-51.302,13.463-51.302,43.846c0,36.521-32.628,47.799-53.758,31.424
		c-0.194-0.149-0.383-0.321-0.575-0.48c-4.422-13.581-7.417-28.1-5.763-39.945c1.365-9.771-13.61-12.16-27.107-10.274
		c0,0-13.297,3.791-15.453,23.39c-0.72,6.547,3.437,5.854,7.716,12.449c6.055,9.232,13.274,18.307,13.274,28.999
		c0,14.899,1.047,28.261,30.362,28.261h5.441c3.144,0.334,6.672,0.514,10.646,0.514c0,0-0.103-0.181-0.289-0.514
		c29.154,0,65.866,0,65.866,0s38.214,0.514,38.214-27.232c0-27.748,17.43-77.792,17.43-77.792S214.344,113.485,206.236,109.414z" style="fill:#BD3030;"></path>
	<path d="M232.079,206.216c0,0,4.187,18.162-15.289,16.13l-6.456,4.046l14.198,10.497
		c0,0,31.702-11.183,22.11-29.681C237.053,188.712,232.079,206.216,232.079,206.216z" style="fill:#FFBF00;"></path>
	<path d="M220.076,236.727" style="fill:#FFBF00;"></path>
	<path d="M208.848,194.042c-2.524,1.551-5.068,3.787-7.422,7.002c-0.389,0.531-0.768,1.09-1.137,1.672
		l17.259,7.771c3.576-3.691,7.63-6.279,11.474-8.088L208.848,194.042z" style="fill:#FFD454;"></path>
	<path d="M225.656,191.451c0,0-8.299-2.639-16.809,2.592l20.174,8.356c7.886-3.712,14.859-4.155,14.859-4.155
		L225.656,191.451z" style="fill:#FFE28A;"></path>
	<path d="M220.116,222.49l-0.242-0.144l-0.017,0.013l-6.306,4.133
		l14.063,10.396c0,0,0.707-0.251,1.875-0.734l5.121-7.633L220.116,222.49z" style="opacity:0.45;fill:#DEA600;enable-background:new    ;"></path>
	<path d="M232.387,210.925c-0.229,2.324-0.148,5.994-2.719,7.851l12.344,7.837
		c2.105-1.965,3.918-4.189,5.079-6.656L232.387,210.925z" style="fill:#FFD454;"></path>
	<g>
		<path d="M217.602,215.117c6.241-11.65,12.256-10.58,19.008-8.885c4.188,1.053,5.066,5.115,5.066,8.342
			c0,4.295-1.111,7.477-3.402,9.723c-3.819,3.75-9.973,3.811-10.033,3.81l0,0c-2.838-0.052-5.18,2.205-5.23,5.044
			c-0.054,2.836,2.206,5.178,5.043,5.23l0,0c1.059,0.021,10.551-0.006,17.42-6.752c4.301-4.221,6.48-9.959,6.48-17.055
			c0-9.447-4.803-16.291-12.842-18.31c-9.383-2.354-19.439-2.603-27.113,11.722" style="fill:#DEA600;"></path>
	</g>
	<path d="M228.052,233.242c-1.86-0.035-3.459-1.063-4.333-2.562c-0.424,0.73-0.693,1.564-0.71,2.471
		c-0.054,2.836,2.206,5.178,5.043,5.23c1.06,0.021,10.552-0.006,17.421-6.752c4.301-4.221,6.479-9.959,6.479-17.055
		c0-0.82-0.048-1.613-0.12-2.393c-0.5,5.84-2.629,10.646-6.359,14.309C238.604,233.237,229.111,233.262,228.052,233.242z
		 M217.602,215.117c6.241-11.65,16.869-13.207,20.102-9.978c3.052,3.054,3.974,6.208,3.974,9.435c0,3.856-0.905,6.807-2.745,8.997
		c0.125-0.103,0.256-0.187,0.371-0.303c2.289-2.247,3.401-5.427,3.401-9.724c0-3.226-1.907-11.399-6.095-12.451
		c-5.459-1.371-14.06,2.732-19.008,11.968" style="fill:#C79500;"></path>
	<g>
		<path d="M228.24,230.162c-2.52-0.047-4.639,1.729-5.12,4.112c0.471,2.304,2.481,4.06,4.933,4.104
			l-1.027,0.396c0.998,0.019,10.396-0.356,17.225-6.047l-7.021-5.489C233.426,230.104,228.295,230.162,228.24,230.162z
			 M239.111,196.265c-9.383-2.354-19.44-2.602-27.113,11.722l-11.708-5.271c0,0-0.976-1.196-0.976,2.658
			c0,3.854,6.438,7.207,12.09,9.742c5.652,2.533,6.197,0,6.197,0c0.422-0.787,0.879-1.494,1.35-2.164l-5.536-4.328
			c7.672-14.324,16.313-12.658,25.696-10.306c7.714,1.937,12.434,8.322,12.806,17.179c0.009-0.311,0.036-0.608,0.036-0.924
			C251.953,205.126,247.15,198.283,239.111,196.265z" style="fill:#C79500;"></path>
	</g>
	<g>
		<path d="M37.412,186.755c0,0,4.186,15.676-15.288,13.644l-6.457,6.531l14.198,10.499
			c0,0,31.702-11.184,22.112-29.682C42.386,169.251,37.412,186.755,37.412,186.755z" style="fill:#FFBF00;"></path>
		<path d="M22.325,217.266c0,0,3.96,5.08,16.978,5.08c13.018,0,191.714,0,191.714,0v8.905H30.054
			C30.054,231.251,22.325,231.369,22.325,217.266z" style="fill:#FFBF00;"></path>
		<path d="M49.214,178.783l-18.226-6.793c0,0-13.951-4.451-24.228,9.592
			c-10.276,14.045-14.91,46.287,32.109,53.914c0,0-31.974-16.232-22.175-35.759C26.494,180.212,49.214,178.783,49.214,178.783z" style="fill:#EDB200;"></path>
		<path d="M0.423,196.99l14.764,6.987c0.298-1.394,0.787-2.808,1.506-4.24
			c1.726-3.438,3.856-6.305,6.188-8.711L5.62,183.255C3.21,187.042,1.249,191.832,0.423,196.99z" style="fill:#FFCB2E;"></path>
		<path d="M14.181,174.582c-2.525,1.551-5.069,3.787-7.421,7c-0.389,0.533-0.768,1.094-1.138,1.674
			l17.261,7.771c3.575-3.69,7.629-6.28,11.472-8.089L14.181,174.582z" style="fill:#FFD454;"></path>
		<path d="M30.988,171.99c0,0-8.296-2.639-16.807,2.592l20.173,8.355c7.886-3.71,14.86-4.154,14.86-4.154
			L30.988,171.99z" style="fill:#FFE28A;"></path>
		<path d="M15.188,203.978L0.424,196.99c-0.799,4.99-0.53,10.32,1.422,15.414l17.401,7.006
			C15.975,214.865,13.981,209.608,15.188,203.978z" style="fill:#FFBF00;"></path>
		<path d="M22.366,200.544l-0.244-0.146l-0.015,0.015l-6.305,6.617
			l14.063,10.397c0,0,0.709-0.253,1.876-0.735l5.122-7.632L22.366,200.544z" style="opacity:0.45;fill:#DEA600;enable-background:new    ;"></path>
		<path d="M37.721,191.464c-0.23,2.324-1.131,5.014-3.703,6.867l13.326,8.82
			c2.106-1.965,3.919-4.189,5.079-6.656L37.721,191.464z" style="fill:#FFD454;"></path>
		<g>
			<path d="M33.385,218.919c1.06,0.021,10.551-0.006,17.422-6.752c4.299-4.221,6.479-9.959,6.479-17.056
				c0-9.446-4.801-16.291-12.842-18.31c-9.381-2.354-22.892,2.758-30.566,17.082c-5.26,9.818-5.395,20.267-0.369,28.658
				c6.18,10.324,18.953,16.244,35.043,16.244h178.354l0,0c2.839,0,5.14-2.3,5.14-5.139c0-2.838-2.301-5.141-5.14-5.141l0,0H48.551
				c-12.206,0-22.011-4.201-26.227-11.243c-3.17-5.296-2.953-11.874,0.611-18.528c4.947-9.232,13.548-13.337,19.006-11.967
				c4.188,1.053,5.068,5.117,5.068,8.342c0,4.297-1.113,7.477-3.403,9.723c-3.82,3.752-9.974,3.812-10.034,3.811l0,0
				c-2.837-0.053-5.18,2.206-5.232,5.042C28.289,216.523,30.547,218.867,33.385,218.919L33.385,218.919z" style="fill:#DEA600;"></path>
		</g>
		<path d="M33.385,213.781c-1.862-0.035-3.458-1.064-4.333-2.562c-0.424,0.73-0.693,1.562-0.71,2.469
			c-0.052,2.837,2.206,5.18,5.043,5.232c1.06,0.021,10.551-0.006,17.422-6.752c4.299-4.221,6.479-9.959,6.479-17.056
			c0-0.819-0.049-1.612-0.121-2.394c-0.5,5.842-2.629,10.648-6.358,14.312C43.936,213.775,34.444,213.8,33.385,213.781z
			 M22.936,198.737c4.947-9.233,13.548-13.337,19.006-11.967c4.188,1.054,5.068,5.117,5.068,8.342c0,3.856-0.906,6.808-2.746,8.998
			c0.124-0.101,0.253-0.188,0.371-0.303c2.289-2.247,3.402-5.429,3.402-9.724c0-3.226-1.907-11.4-6.095-12.451
			c-5.458-1.37-14.059,2.73-19.006,11.967c-2.381,4.445-3.26,8.855-2.641,12.877C20.659,203.957,21.535,201.354,22.936,198.737z
			 M48.551,233.649c-16.09,0-28.863-5.921-35.043-16.243c-2.014-3.361-3.185-7.06-3.544-10.908
			c-0.524,5.688,0.646,11.209,3.544,16.047c6.18,10.324,18.953,16.244,35.043,16.244h178.354c2.84,0,5.141-2.301,5.141-5.14H48.551
			L48.551,233.649z" style="fill:#C79500;"></path>
		<g>
			<path d="M226.904,228.509H48.551c-12.205,0-22.01-4.201-26.226-11.243
				c-1.313-2.192-2.036-4.608-2.19-7.157c-0.194,3.309,0.528,6.438,2.19,9.213c4.216,7.041,14.021,11.245,26.226,11.245h178.354
				h4.089C230.055,229.324,228.581,228.509,226.904,228.509z M33.574,208.645c-2.837-0.054-5.18,2.206-5.232,5.042
				c-0.007,0.387,0.037,0.762,0.111,1.126c0.483-2.384,2.603-4.159,5.121-4.112c0.06,0,6.213-0.059,10.033-3.81
				c2.29-2.248,3.403-5.429,3.403-9.724c0-0.336-0.012-0.684-0.034-1.033c-0.168,3.777-1.267,6.638-3.369,8.699
				C39.787,208.585,33.634,208.646,33.574,208.645z M44.443,178.859c7.715,1.936,12.435,8.321,12.806,17.178
				c0.008-0.311,0.036-0.609,0.036-0.925c0-9.446-4.801-16.291-12.842-18.31c-9.38-2.354-22.893,2.758-30.566,17.082
				c-2.887,5.39-4.22,10.967-4.013,16.291c0.166-4.693,1.496-9.535,4.013-14.235C21.551,181.615,35.063,176.505,44.443,178.859z" style="fill:#FFE28A;"></path>
		</g>
	</g>
	<path d="M232.043,233.649c0,0,2.355,0.269,8.729-3.664l-3.135-3.062c0,0-6.051,1.621-10.162,1.621
		S232.043,233.649,232.043,233.649z" style="fill:#DEA600;"></path>
	<path d="M227.562,230.566c0,0,15.959-2.081,15.035-14.859c0,0-2.936,12.625-16.287,12.625
		C212.958,228.332,227.562,230.566,227.562,230.566z" style="fill:#FFE28A;"></path>
	<path d="M48.515,214.115c0,0,2.446,14.395,45.529,12.855l-36.928-26.412
		C57.117,200.559,55.578,208.544,48.515,214.115z" style="fill:#BD3030;"></path>
	<path d="M205.425,108.966c9.948,5.203,9.981,10.174-9.653,8.847c-22.984-1.552-35.694,8.086-36.914,9.058
		c-7.899,6.662-13.512,15.283-13.512,26.277c0,36.521-43.889,49.604-65.018,33.229c-7.608-5.896-8.795-26.319-8.795-35.797
		c0-13.873-11.11-13.359-11.11-13.359s-14.085-0.491-21.2,3.176c-8.501,4.379-9.299,13.376,5.089,18.236
		c13.692,4.621,19.37,25.176,19.37,40.076c0,14.901,1.047,28.263,30.362,28.263s81.664,0,81.664,0s38.214,0.513,38.214-27.233
		c0-27.748,0-76.047,0-76.047S214.939,111.313,205.425,108.966z" style="fill:#F23D3D;"></path>
	<path d="M147.253,160.643c0,0,6.495-21.72,27.552-27.554c21.055-5.834,27.123,15.984,27.108,35.174
		l-0.255-47.88C201.659,120.383,147.253,110.67,147.253,160.643z" style="fill:#D92B2B;"></path>
	<path d="M205.425,108.966c8.771,4.588,9.827,8.994-3.512,9.062v68.599c0,27.748-33.524,27.234-33.524,27.234
		s-45.925,0-71.643,0c-25.718,0-20.761-14.568-26.637-28.262c-13.105-30.549-0.596-36.182-12.608-40.807
		c-4.8-1.847-4.8-1.847-8.976-1.744c-1.805,0.437-3.5,1-4.918,1.729c-8.5,4.381-13.682,8.993,0.706,13.854
		c13.692,4.623,19.37,25.177,19.37,40.078c0,14.9,1.047,28.262,30.362,28.262s81.664,0,81.664,0s38.214,0.513,38.214-27.233
		c0-27.748,0-76.047,0-76.047S214.939,111.313,205.425,108.966z" style="fill:#D92B2B;"></path>
	<path d="M147.906,158.82c0,0,0.791-23.037,19.773-30.505s43.952-5.237,45.282-10.429
		C212.962,117.886,144.573,110.454,147.906,158.82z" style="fill:#8F0000;"></path>
	<g>
		<path d="M27.491,153.089v0.009c-0.003-0.078-0.311-7.923,5.401-12.702c5.02-4.202,13.214-5.041,24.357-2.49
			l0,0c1.383,0.317,2.761-0.548,3.077-1.931c0.317-1.384-0.548-2.763-1.932-3.077l0,0c-12.83-2.938-22.539-1.727-28.855,3.604
			c-7.666,6.465-7.202,16.453-7.179,16.873l0,0c0.079,1.418,1.291,2.502,2.708,2.424C26.485,155.718,27.57,154.505,27.491,153.089
			L27.491,153.089z" style="fill:#FFBF00;"></path>
	</g>
	<path d="M45.037,153.302c0,0,1.775,2.927,0,5.467h-3.219L45.037,153.302z" style="fill:#8F0000;"></path>
	<g>
		<path d="M94.119,195.637c0.318-0.026,31.88-2.919,35.342-32.894c3.243-28.062,9.999-49.812,63.812-53.354
			c4.353-0.313,12.276,0.165,15.08,2.773c0.664,0.618,0.959,1.277,0.959,2.138c0,0.014,0,0.02,0,0.02
			c0.002-0.024,0.021-0.07,0.037-0.089c-0.306,0.39-1.642,1.04-7.154,1.016l-0.536-0.001c-2.958,0-21.019,0.682-21.785,0.711
			l-0.121,0.004l-0.118,0.016c-33.562,4.441-36.816,36.62-36.847,36.942l-0.011,0.117v0.112c0,21.485-16.355,36.247-41.667,37.603
			c-9.242,0.494-16.304-1.938-20.992-7.235c-6.844-7.737-7.539-20.257-6.054-28.626c1.271-7.162-0.902-13.792-5.811-17.735
			c-3.446-2.767-11.264-6.563-24.906-0.907c-7.414,3.076-11.431,6.912-11.938,11.401c-0.668,5.913,5.146,10.122,5.393,10.297l0,0
			c1.156,0.823,2.76,0.554,3.582-0.604c0.823-1.157,0.552-2.762-0.604-3.584l0,0l0.009,0.008c-0.036-0.026-3.607-2.699-3.272-5.555
			c0.284-2.418,3.409-4.981,8.799-7.217c8.298-3.441,15.301-3.382,19.72,0.166c3.474,2.791,4.922,7.469,3.97,12.834
			c-1.685,9.498-0.793,23.818,7.265,32.926c5.778,6.529,14.229,9.545,25.115,8.963c34.345-1.84,46.53-24.17,46.53-42.732
			l-0.01,0.229c0.107-1.153,2.979-28.414,32.402-32.309l-0.238,0.021c0.187-0.008,18.728-0.708,21.59-0.708l0.514,0.002
			c3.988,0.018,8.439-0.16,10.79-2.499c0.974-0.971,1.489-2.21,1.489-3.586c0-2.28-0.899-4.321-2.602-5.903
			c-5.352-4.974-17.56-4.235-18.936-4.134c-57.65,3.794-65.159,28.463-68.558,57.892c-2.976,25.744-29.527,28.267-30.657,28.361
			l0.004-0.001c-1.415,0.113-2.468,1.354-2.354,2.768C91.465,194.696,92.705,195.751,94.119,195.637L94.119,195.637z" style="fill:#FFBF00;"></path>
	</g>
	<path d="M69.004,153.992c-0.522,2.944-0.795,6.354-0.686,9.926c0.063-2.535,0.304-4.947,0.686-7.104
		c0.277-1.563,0.328-3.062,0.206-4.479C69.163,152.878,69.104,153.43,69.004,153.992z M211.852,108.397
		c-5.353-4.975-17.561-4.235-18.937-4.135c-57.651,3.794-65.159,28.463-68.558,57.892c-2.85,24.666-27.33,28.014-30.37,28.334
		c-5.821-0.807-10.473-3.134-13.871-6.974c-4.645-5.251-6.452-12.701-6.673-19.563c-0.226,7.57,1.383,16.402,6.673,22.385
		c3.398,3.84,8.05,6.168,13.871,6.974c9.292,0,27.52-3.668,30.37-28.334c3.398-29.429,10.907-54.096,68.558-57.891
		c1.376-0.102,13.584-0.84,18.937,4.134c1.289,1.199,2.116,2.664,2.441,4.295c0.096-0.391,0.158-0.792,0.158-1.213
		C214.452,112.021,213.552,109.979,211.852,108.397z M208.126,114.802c-1.01,0.251-2.787,0.457-5.931,0.444l-0.537-0.001
		c-2.958,0-21.02,0.682-21.785,0.711l-0.121,0.003l-0.118,0.017c-34.573,1.688-36.817,36.619-36.847,36.941l-0.012,0.117v0.112
		c0,15.746-9.598,30.765-24.252,36.653c-4.973,1.684-15.646,3.381-22.469,3.445c18.328-4.738,46.721-19.432,46.721-37.279v-0.112
		l0.012-0.114c0.029-0.324,3.283-32.503,36.847-36.944l0.118-0.015l0.121-0.005c0.768-0.028,18.827-0.71,21.785-0.71l0.537,0.002
		c5.322,0.023,6.746-0.582,7.115-0.974c0.15-1.006,0.658-2.183,0.002-2.794C209.245,114.236,208.201,114.863,208.126,114.802z
		 M68.252,137.153c-3.446-2.767-11.264-6.563-24.906-0.907c-7.414,3.075-11.431,6.912-11.938,11.401
		c-0.093,0.823-0.051,1.608,0.075,2.36c0.724-4.293,4.705-7.973,11.863-10.941c13.643-5.656,21.46-1.857,24.906,0.909
		c3.65,2.93,5.784,7.349,6.118,12.366C74.771,146.177,72.573,140.625,68.252,137.153z" style="fill:#FFE28A;"></path>
	<path d="M38.482,159.859c0,0,19.816,2.875,24.252,27.833c0,0-2.812-25.474-20.314-29.765
		C42.419,157.929,34.543,158.221,38.482,159.859z" style="fill:#8F0000;"></path>
	<path d="M25.447,159.789c0,0,5.915,2.648,8.336-2.688c0,0,2.078,2.759,5.264,2.759
		c3.187,0-2.51-4.51-6.052-6.021c-3.542-1.51-7.852,3.971-7.852,3.971L25.447,159.789z" style="fill:#8F0000;"></path>
	<path d="M26.714,154.537c-1.417,0.069-2.629-0.887-2.708-2.137c-0.023-0.369-0.487-9.172,7.179-14.867
		c6.317-4.695,16.025-5.765,28.856-3.177c0.049,0.011,0.092,0.028,0.139,0.041c-0.312-0.729-0.951-1.31-1.785-1.5
		c-12.83-2.938-22.539-1.726-28.855,3.604c-7.666,6.465-7.202,16.451-7.179,16.873c0.079,1.416,1.291,2.5,2.708,2.422
		c0.915-0.051,1.685-0.577,2.1-1.323C27.021,154.503,26.87,154.528,26.714,154.537z" style="fill:#FFE28A;"></path>
	<circle r="5.405" cy="153.303" cx="39.632" style="fill:#FFBF00;"></circle>
	<circle r="3.599" cy="152.579" cx="38.987" style="fill:#FFE28A;"></circle>
	<path d="M155.044,130.408c0,0-10.315,12.295-10.315,27.709c0,15.416-17.955,27.041-17.955,27.041
		s16.414-19.332,16.414-29.438S150.202,131.903,155.044,130.408z" style="fill:#FFE28A;"></path>
	<path d="M119.869,179.541c0,0,6.43-13.974,9.273-30.93c2.806-16.723,13.504-26.283,13.504-26.283
		s-12.354,7.473-18.289,35.789C119.869,179.541,119.869,179.541,119.869,179.541z" style="fill:#FFE28A;"></path>
	<circle r="5.405" cy="153.024" cx="27.657" style="fill:#FFBF00;"></circle>
	<circle r="3.599" cy="152.327" cx="25.853" style="fill:#FFE28A;"></circle>
	<path d="M57.286,194.919c0,0,1.416,14.389-6.793,22.597l-1.978-3.401
		C48.515,214.115,58.346,206.694,57.286,194.919z" style="fill:#8F0000;"></path>
	<path d="M128.148,169.332c0,0-7.741,20.643-29.579,22.185c0,0,33.017-1.511,43.228-29.658L128.148,169.332z" style="fill:#BD3030;"></path>
	<path d="M129.461,163.145c0,0,3.048-33.647,25.372-42.793c22.325-9.147,44.927-11.098,53.293-5.549
		c0,0,6.885-5.279-14.854-5.414C171.533,109.253,130.782,114.11,129.461,163.145z" style="fill:#8F0000;"></path>
	<path d="M36.917,149.063c0,0,28.236-22.739,31.796,9.67c0,0,8.06-29.424-25.036-17.297
		C43.677,141.436,31.057,148.561,36.917,149.063z" style="fill:#8F0000;"></path>
	<path d="M91.638,192.886c0,0,5.757,1.642,17.625-0.961l0.481-2.424l-11.174,2.015L91.638,192.886z" style="fill:#FFE28A;"></path>
	<circle r="5.769" cy="162.494" cx="204.62" style="fill:#D92B2B;"></circle>
	<circle r="1.61" cy="180.707" cx="194.462" style="fill:#D92B2B;"></circle>
	<circle r="6.05" cy="155.599" cx="201.857" style="fill:#D92B2B;"></circle>
	<circle r="2.413" cy="163.479" cx="189.466" style="fill:#D92B2B;"></circle>
	<circle r="1.485" cy="167.006" cx="195.964" style="fill:#D92B2B;"></circle>
</g>
</svg>
